<svg width="190" height="35" viewBox="0 0 190 35" fill="none" xmlns="http://www.w3.org/2000/svg">
<path fill-rule="evenodd" clip-rule="evenodd" d="M13.9606 26.1807L19.5652 32.5223L17.8838 34.4247L12.3301 28.0832V27.1032L11.9735 26.7573C10.6148 28.064 9.03531 28.7174 7.23504 28.7174C5.23097 28.7174 3.52411 27.9199 2.11447 26.3249C0.704822 24.7299 0 22.7986 0 20.531C0 18.2635 0.704822 16.3226 2.11447 14.7084C3.52411 13.0942 5.21399 12.287 7.18409 12.287C9.18816 12.287 10.895 13.0942 12.3047 14.7084C13.7143 16.3226 14.4191 18.2635 14.4191 20.531C14.4191 22.568 13.8417 24.3552 12.6868 25.8925L13.0435 26.1807H13.9606ZM7.23502 26.1807C8.62768 26.1807 9.81654 25.6331 10.8016 24.5377C11.7866 23.4423 12.2792 22.1068 12.2792 20.531C12.2792 18.9552 11.7866 17.6101 10.8016 16.4955C9.81654 15.3809 8.62768 14.8236 7.23502 14.8236C5.84236 14.8236 4.662 15.3809 3.69393 16.4955C2.72586 17.6101 2.24182 18.9552 2.24182 20.531C2.24182 22.1068 2.72586 23.4423 3.69393 24.5377C4.662 25.6331 5.84236 26.1807 7.23502 26.1807Z" fill="#323332"/>
<path fill-rule="evenodd" clip-rule="evenodd" d="M159.172 30.6488C159.141 30.6134 159.125 30.5957 159.125 30.5957V30.4896C158.375 29.2521 158 27.8908 158 26.4057C158 24.1427 158.766 22.2687 160.297 20.7837C160.172 21.5616 160.109 22.1627 160.109 22.587C160.109 25.0267 160.906 27.1217 162.5 28.872C164.094 30.6222 166.016 31.4974 168.266 31.4974C168.984 31.4974 169.672 31.3913 170.328 31.1791C168.922 33.0532 167.125 33.9902 164.938 33.9902C164.094 33.9902 163.188 33.778 162.219 33.3537H162.172C162.047 33.283 161.922 33.2476 161.797 33.2476C161.703 33.2476 161.562 33.283 161.375 33.3537L158.75 34.5206L159.312 31.1791C159.312 31.0024 159.266 30.8256 159.172 30.6488ZM169.344 12.4567C171.594 12.4567 173.516 13.3318 175.109 15.0821C176.703 16.8323 177.5 18.9273 177.5 21.3671C177.5 23.0289 177.062 24.6201 176.188 26.1405L176.141 26.1936C176.109 26.2289 176.094 26.2643 176.094 26.2996C176 26.5118 175.953 26.7239 175.953 26.9361L176.75 30.8609L173.516 29.4819C173.328 29.4112 173.172 29.3758 173.047 29.3758C172.953 29.3758 172.812 29.4112 172.625 29.4819L172.531 29.535C172.281 29.641 171.906 29.7648 171.406 29.9062C170.75 30.1184 170.062 30.2245 169.344 30.2245C167.094 30.2245 165.18 29.3582 163.602 27.6256C162.023 25.893 161.234 23.8068 161.234 21.3671C161.234 20.7306 161.281 20.1118 161.375 19.5107C161.75 17.4953 162.688 15.8158 164.188 14.4721C165.688 13.1285 167.406 12.4567 169.344 12.4567Z" fill="#323332"/>
<path fill-rule="evenodd" clip-rule="evenodd" d="M116.348 34.7854C115.811 34.7854 115.352 34.5618 114.973 34.1145C114.593 33.6673 114.403 33.1395 114.403 32.5313H118.293C118.293 33.1395 118.103 33.6673 117.724 34.1145C117.344 34.5618 116.886 34.7854 116.348 34.7854ZM122.752 28.0767L124.696 30.3308V31.4579H108V30.3308L109.945 28.0767V21.9584C109.945 20.2767 110.411 18.7829 111.344 17.477C112.277 16.171 113.455 15.3212 114.878 14.9277V14.1226C114.878 13.6575 115.012 13.2639 115.281 12.9419C115.55 12.6199 115.905 12.4589 116.348 12.4589C116.791 12.4589 117.147 12.6199 117.415 12.9419C117.684 13.2639 117.819 13.6575 117.819 14.1226V14.9277C119.242 15.3212 120.42 16.171 121.352 17.477C122.285 18.7829 122.752 20.2767 122.752 21.9584V28.0767Z" fill="#323332"/>
<path fill-rule="evenodd" clip-rule="evenodd" d="M52.8907 18.153C52.5782 17.9763 52.375 17.7818 52.2813 17.5696C52.2188 17.3575 52.2266 17.216 52.3047 17.1453C52.3829 17.0746 52.5625 17.0392 52.8438 17.0392H61.7969H70.75C71.0312 17.0392 71.2109 17.0746 71.289 17.1453C71.3671 17.216 71.375 17.3575 71.3125 17.5696C71.2187 17.7818 71.0156 17.9763 70.7031 18.153C65.5469 21.3353 62.9062 22.9618 62.7812 23.0326C62.5312 23.174 62.2031 23.2447 61.7969 23.2447C61.3906 23.2447 61.0625 23.174 60.8125 23.0326C60.6875 22.9618 58.0469 21.3353 52.8907 18.153ZM71.125 18.3652C71.3438 18.3298 71.4609 18.321 71.4766 18.3387C71.4922 18.3564 71.5 18.4536 71.5 18.6304V29.5032C71.5 29.7507 71.3828 29.9983 71.1484 30.2458C70.9141 30.4933 70.6875 30.617 70.4688 30.617H61.7969H53.125C52.875 30.617 52.625 30.4933 52.375 30.2458C52.125 29.9983 52 29.7507 52 29.5032V18.6304C52 18.3122 52.1406 18.2238 52.4219 18.3652C52.5156 18.4359 52.9062 18.7276 53.5938 19.2403C54.2812 19.753 55.1328 20.3983 56.1484 21.1762C57.1641 21.9541 57.9844 22.5729 58.6094 23.0326L54.7188 27.9651C54.625 28.0712 54.6094 28.1596 54.6719 28.2303C54.7031 28.2657 54.75 28.2745 54.8125 28.2568C54.875 28.2392 54.9219 28.2126 54.9531 28.1773L59.5469 23.7751C60.2031 24.2701 60.625 24.5707 60.8125 24.6768C61.0625 24.8182 61.3906 24.8889 61.7969 24.8889C62.2031 24.8889 62.5312 24.8182 62.7812 24.6768C62.9688 24.5707 63.3906 24.2701 64.0469 23.7751L68.6406 28.1773C68.6719 28.2126 68.7188 28.2392 68.7812 28.2568C68.8438 28.2745 68.8906 28.2657 68.9219 28.2303C68.9531 28.195 68.9219 28.1066 68.8281 27.9651L64.9844 23.0326C65.6094 22.5729 66.4219 21.9541 67.4219 21.1762C68.4219 20.3983 69.2656 19.753 69.9531 19.2403C70.6406 18.7276 71.0312 18.4359 71.125 18.3652Z" fill="#323332"/>
<path fill-rule="evenodd" clip-rule="evenodd" d="M180 23.6019C185.523 23.6019 190 18.536 190 12.287C190 6.03804 185.523 0.972229 180 0.972229C174.477 0.972229 170 6.03804 170 12.287C170 18.536 174.477 23.6019 180 23.6019Z" fill="#42229D"/>
<path d="M182.285 12.5015H183.469V13.3862H182.285V15.3667H181.195V13.3862H177.311V12.7476L181.131 6.83545H182.285V12.5015ZM178.541 12.5015H181.195V8.31787L181.066 8.55225L178.541 12.5015Z" fill="white"/>
<path fill-rule="evenodd" clip-rule="evenodd" d="M128 23.6019C133.523 23.6019 138 18.536 138 12.287C138 6.03804 133.523 0.972229 128 0.972229C122.477 0.972229 118 6.03804 118 12.287C118 18.536 122.477 23.6019 128 23.6019Z" fill="#407EFF"/>
<path d="M130.285 12.5015H131.469V13.3862H130.285V15.3667H129.195V13.3862H125.311V12.7476L129.131 6.83545H130.285V12.5015ZM126.541 12.5015H129.195V8.31787L129.066 8.55225L126.541 12.5015Z" fill="white"/>
<path fill-rule="evenodd" clip-rule="evenodd" d="M74 23.6019C79.5228 23.6019 84 18.536 84 12.287C84 6.03804 79.5228 0.972229 74 0.972229C68.4772 0.972229 64 6.03804 64 12.287C64 18.536 68.4772 23.6019 74 23.6019Z" fill="#FFAD00"/>
<path d="M76.2852 12.5015H77.4688V13.3862H76.2852V15.3667H75.1953V13.3862H71.3105V12.7476L75.1309 6.83545H76.2852V12.5015ZM72.541 12.5015H75.1953V8.31787L75.0664 8.55225L72.541 12.5015Z" fill="white"/>
</svg>
